<?xml version="1.0" encoding="UTF-8"?>
<svg id="Warstwa_1" data-name="Warstwa 1" xmlns="http://www.w3.org/2000/svg" xmlns:xlink="http://www.w3.org/1999/xlink" viewBox="0 0 1024 1024">
  <defs>
    <style>
      .cls-1 {
        fill: url(#Gradniet_Czerw_-_Horizon);
      }

      .cls-2 {
        fill: #fff;
      }

      .cls-3 {
        fill: #252d46;
      }

      .cls-4 {
        fill: #0d467b;
      }

      .cls-5 {
        fill: #035131;
      }

      .cls-6 {
        fill: #ab2d32;
      }
    </style>
    <linearGradient id="Gradniet_Czerw_-_Horizon" data-name="Gradniet Czerw - Horizon" x1="103.25" y1="535.2" x2="886.79" y2="535.2" gradientUnits="userSpaceOnUse">
      <stop offset="0" stop-color="#a62026"/>
      <stop offset="1" stop-color="#82171e"/>
    </linearGradient>
  </defs>
  <g>
    <path class="cls-6" d="M439.96,670.71v-58.59c0-1.05.39-1.95,1.16-2.7s1.66-1.12,2.65-1.12h4.84c.99,0,1.87.37,2.65,1.12.77.74,1.16,1.64,1.16,2.7v21.02h28.46v-21.02c0-1.05.39-1.95,1.16-2.7.77-.74,1.66-1.12,2.65-1.12h4.84c.99,0,1.87.37,2.65,1.12.77.74,1.16,1.64,1.16,2.7v58.59c0,1.05-.39,1.95-1.16,2.7-.78.74-1.66,1.12-2.65,1.12h-4.84c-.99,0-1.88-.37-2.65-1.12-.78-.74-1.16-1.64-1.16-2.7v-26.04h-28.46v26.04c0,1.05-.39,1.95-1.16,2.7-.78.74-1.66,1.12-2.65,1.12h-4.84c-.99,0-1.88-.37-2.65-1.12-.78-.74-1.16-1.64-1.16-2.7Z"/>
    <path class="cls-6" d="M508.45,668.76c-4.31-4.59-6.46-10.51-6.46-17.76s2.15-13.17,6.46-17.76c4.31-4.59,10.18-6.88,17.62-6.88s13.31,2.29,17.62,6.88c4.31,4.59,6.46,10.51,6.46,17.76s-2.16,13.17-6.46,17.76c-4.31,4.59-10.18,6.88-17.62,6.88s-13.32-2.29-17.62-6.88ZM517.06,640.9c-2.11,2.76-3.16,6.12-3.16,10.09s1.05,7.33,3.16,10.09c2.11,2.76,5.12,4.14,9.02,4.14s6.91-1.38,9.02-4.14c2.11-2.76,3.16-6.12,3.16-10.09s-1.05-7.33-3.16-10.09c-2.11-2.76-5.12-4.14-9.02-4.14s-6.91,1.38-9.02,4.14Z"/>
    <path class="cls-6" d="M558.35,670.71v-39.43c0-1.05.37-1.95,1.12-2.7.74-.74,1.64-1.12,2.7-1.12h3.72c1.05,0,1.95.37,2.7,1.12.74.74,1.12,1.64,1.12,2.7v2.7h.19c1.36-2.67,3.15-4.56,5.35-5.67,2.2-1.12,4.14-1.67,5.81-1.67,2.23,0,3.35,1.08,3.35,3.25v5.02c0,.99-.31,1.72-.93,2.19-.62.47-1.58.82-2.88,1.07-7.25,1.43-10.88,5.95-10.88,13.58v18.97c0,1.05-.37,1.95-1.12,2.7-.74.74-1.64,1.12-2.7,1.12h-3.72c-1.05,0-1.95-.37-2.7-1.12-.74-.74-1.12-1.64-1.12-2.7Z"/>
    <path class="cls-6" d="M594.89,619.84c-1.05,0-1.95-.37-2.7-1.12s-1.12-1.64-1.12-2.7v-3.91c0-1.05.37-1.95,1.12-2.7s1.64-1.12,2.7-1.12h3.72c1.05,0,1.95.37,2.7,1.12.74.74,1.12,1.64,1.12,2.7v3.91c0,1.06-.37,1.95-1.12,2.7-.74.74-1.64,1.12-2.7,1.12h-3.72ZM591.08,670.71v-39.43c0-1.05.37-1.95,1.12-2.7.74-.74,1.64-1.12,2.7-1.12h3.72c1.05,0,1.95.37,2.7,1.12.74.74,1.12,1.64,1.12,2.7v39.43c0,1.05-.37,1.95-1.12,2.7-.74.74-1.64,1.12-2.7,1.12h-3.72c-1.05,0-1.95-.37-2.7-1.12-.74-.74-1.12-1.64-1.12-2.7Z"/>
    <path class="cls-6" d="M610.42,670.71v-2.6c0-1.61,1.36-3.97,4.09-7.07l20.83-23.72h-18.51c-1.05,0-1.95-.37-2.7-1.12s-1.12-1.64-1.12-2.7v-2.23c0-1.05.37-1.95,1.12-2.7.74-.74,1.64-1.12,2.7-1.12h29.67c.99,0,1.88.37,2.65,1.12.77.74,1.16,1.64,1.16,2.7v2.14c0,1.86-1.12,4.06-3.35,6.6l-21.3,24.65h20.83c.99,0,1.88.37,2.65,1.12.77.74,1.16,1.64,1.16,2.7v2.23c0,1.05-.39,1.95-1.16,2.7-.78.74-1.66,1.12-2.65,1.12h-32.27c-1.06,0-1.95-.37-2.7-1.12-.74-.74-1.12-1.64-1.12-2.7Z"/>
    <path class="cls-6" d="M661.81,668.76c-4.31-4.59-6.46-10.51-6.46-17.76s2.15-13.17,6.46-17.76c4.31-4.59,10.18-6.88,17.62-6.88s13.31,2.29,17.62,6.88c4.31,4.59,6.46,10.51,6.46,17.76s-2.16,13.17-6.46,17.76c-4.31,4.59-10.18,6.88-17.62,6.88s-13.32-2.29-17.62-6.88ZM670.41,640.9c-2.11,2.76-3.16,6.12-3.16,10.09s1.05,7.33,3.16,10.09c2.11,2.76,5.12,4.14,9.02,4.14s6.91-1.38,9.02-4.14c2.11-2.76,3.16-6.12,3.16-10.09s-1.05-7.33-3.16-10.09c-2.11-2.76-5.12-4.14-9.02-4.14s-6.91,1.38-9.02,4.14Z"/>
    <path class="cls-6" d="M711.7,670.71v-39.43c0-1.05.37-1.95,1.12-2.7.74-.74,1.64-1.12,2.7-1.12h3.72c1.05,0,1.95.37,2.7,1.12.74.74,1.15,1.64,1.21,2.7v.84c3.22-3.84,7.53-5.77,12.93-5.77,10.79,0,16.18,5.33,16.18,16v28.37c0,1.05-.37,1.95-1.12,2.7-.74.74-1.64,1.12-2.7,1.12h-3.72c-1.05,0-1.95-.37-2.7-1.12-.74-.74-1.12-1.64-1.12-2.7v-24.92c0-2.36-.62-4.36-1.86-6-1.24-1.64-3.22-2.46-5.95-2.46-2.92,0-5.32,1.04-7.21,3.12-1.89,2.08-2.84,5.16-2.84,9.25v21.02c0,1.05-.37,1.95-1.12,2.7-.74.74-1.64,1.12-2.7,1.12h-3.72c-1.05,0-1.95-.37-2.7-1.12-.74-.74-1.12-1.64-1.12-2.7Z"/>
  </g>
  <g>
    <path class="cls-4" d="M584.23,692.14v2.2c.2-.69.39-1.38.57-2.08.02-.03.02-.08.03-.11h-.61Z"/>
    <path class="cls-3" d="M503.59,579.36c-5.9-23.73-12.67-50.96-19.47-78.2-19.95,15.03-39.09,30.21-57.3,45.27,3.97,14.96,8.23,31.08,12.57,47.47h67.86c-1.18-4.72-2.39-9.57-3.66-14.54ZM465.48,692.25c4.98,18.78,9.24,34.9,12.24,46.25,1.69,11.47,14.55,13.74,24.52,13.46,13.72.07,30.57.07,45.55-.03,18.16.08,21.93-4.33,26.14-21.26,3.15-10.72,6.8-23.62,10.29-35.98.23-.82.46-1.64.69-2.44h-119.44ZM901.81,597.03l-.23-.3c-3.8-4.77-8.31-9.23-13.21-13.08-6.62-5.38-14.95-10.24-19.72-13.7-1.75-1.39-3.98-2.98-4.31-5.25-.07-3.72,2.62-5.59,5.92-8.57,3.43-2.85,7.16-5.49,10.67-8.31,38.58-28.99,41.83-91.49,8.92-125.93-36.52-38.7-92.1-35.21-141.22-35.27-28.08-.11-56.3-.21-84.46-.13-28.95,15-57.06,31.26-84.17,48.32-9.98,43.3-21.54,93.38-31.37,135.96-1.82,7.83-3.61,15.57-5.36,23.13h69.1c13.01-46.57,26-92.72,38.91-138.48,2.74-11.03,7.41-9.65,18.5-9.6,6.56-.02,12.83,0,20.62,0,30.93.08,51.34-.1,75.69.05,16.18.2,33.52.21,47.6,7.79,32.57,16.13,29.16,67.89-6.02,78.66-16.98,5.98-35.27,4.87-52.76,5.08-15.23,0-37.73.03-55.11,0-8.36,0-18.93,0-26.26.03-6.67.02-9.62.13-11.42,3.31-4.34,10.29-7.62,26.59-11.26,38.27-1.33,4.85-2.84,9.87-4.18,14.9h85.74c2.13-.07,4.29-.03,6.38,0,1.11.03,2.2.05,3.25.05s1.97-.02,2.88-.05c26.68.87,55.99-3.85,79.63,10.83,24.08,15.29,27.95,54.04,6.28,73l-.3.26c-16.88,14.42-38.6,14.24-60.94,14.24-10.77-.21-21.95.31-32.85.02h-108.18c-5.34,1.2-10.54,3.02-12.34,11.51-2.85,9.92-7.67,27.39-10.38,37.12-.62,2.79-1.69,5.67-1.26,8.31.74,2.95,4.23,2.61,6.85,2.84,20.08,0,54.17.13,75.74.07,20.85-.03,42.37-.16,63.3-.16,53.94.7,119.55,3.77,154.12-45.39,22.39-32.01,21.49-79.02-2.8-109.52ZM301.19,660.93l2.36-2.36c-.79.77-1.57,1.56-2.36,2.34v.02Z"/>
    <path class="cls-2" d="M742.05,593.89v.05c-1.05,0-2.13-.02-3.25-.05h3.25Z"/>
    <polygon class="cls-4" points="585.22 692.14 584.22 695.73 584.22 692.14 585.22 692.14"/>
    <path class="cls-1" d="M885.64,320.22c-45.5.46-131.93,26.68-145.2,30.8h-.02c-.56.18-.98.31-1.28.39-.1.03-.18.07-.28.1-.07.02-.11.03-.18.05-29.22,9.97-57.89,21.77-85.84,34.98-23.95,11.31-47.37,23.65-70.15,36.75-35.57,20.41-69.58,42.65-101.64,65.58-20.09,14.37-39.42,29.03-57.88,43.7-9.79,7.77-19.32,15.55-28.62,23.31-31.8,26.52-60.56,52.6-85.69,76.68-5.25,5.03-10.33,10-15.26,14.78-20.78,20.41-38.67,38.98-53.22,54.65-26.13,28.08-41.63,46.83-44.19,49.93-.18.25-60.19.38-85.99.43t-.02.03h-5.65c-1.07,0-1.67-1.07-1.02-1.77,40.98-45.53,81.79-86.28,122.08-122.77-23.83-88.05-51.25-194.7-61.69-232.53-1.41-8.52,9.28-8.18,16.05-8.57,13.77-.13,28.8-.21,42.75.05,15.42-.48,20.11,9.08,22.41,22.44,5.65,24.72,11.82,51.5,18.62,81.64,6.51,28.78,13.21,58.24,19.8,87.12,19.18-15.72,38.21-30.45,57.01-44.35,14.33-55.07,29.11-111.64,37.12-138.63,4.9-9.05,18.41-8.15,27.63-8.34,10.87-.02,22.68-.02,33.06,0,17.32-.36,25.34,3.72,28.14,20.67,2.98,11.77,6.24,24.82,9.7,38.58,51.97-29.08,101.2-51.63,146.65-69.09,80.43-30.81,148.96-45.76,199.72-52.89,25.82-3.61,47.02-5.21,62.86-5.85,1.69-.08,1.87,2,.21,2.16Z"/>
    <path class="cls-2" d="M741.01,350.77c-.2.08-.38.16-.57.25h-.02c-.56.18-.98.31-1.28.39l1.87-.64Z"/>
    <path class="cls-3" d="M388.08,579.47c-16.37,59.5-34.44,125.93-45.04,161.63-3.9,10.01-16.08,11.13-25.57,11.01-10.92.13-23.55.16-34.73.21-8.1,0-23.21.72-27.86-3.82-2.49-6.85-5.7-16.88-9.42-29.29,1.75-1.92,3.57-3.9,5.44-5.93,1.77-1.92,3.59-3.88,5.46-5.9,3.08-3.31,6.29-6.74,9.65-10.28,1.08-1.15,2.16-2.29,3.28-3.46,8.36-8.8,17.54-18.28,27.45-28.27l1.72-1.72,2.74-2.72,2.36-2.36c1.52-1.51,3.05-3.03,4.61-4.57,1.54-1.52,3.11-3.07,4.69-4.62,3.16-3.11,6.39-6.26,9.67-9.44,1.64-1.59,3.31-3.2,4.98-4.8,6.31-6.06,12.83-12.26,19.59-18.55,1.84-1.72,3.7-3.44,5.57-5.18,3.7-3.43,7.46-6.88,11.28-10.36,7.8-7.1,15.85-14.31,24.14-21.57Z"/>
    <path class="cls-5" d="M363.94,601.04c-3.82,3.47-7.57,6.93-11.28,10.36,3.69-3.43,7.46-6.88,11.28-10.36Z"/>
  </g>
</svg>